<?xml version="1.0" standalone="no"?> <!DOCTYPE svg PUBLIC "-//W3C//DTD SVG 1.0//EN" "http://www.w3.org/TR/2001/REC-SVG-20010904/DTD/svg10.dtd" > <svg xmlns="http://www.w3.org/2000/svg" width="100%" height="100%">
<defs >
<font horiz-adv-x="300" ><font-face
    font-family="HSN Shahd Bold"
    units-per-em="500"
    panose-1="2 10 5 3 2 1 2 2 2 4"
    ascent="459"
    descent="-187"
    alphabetic="0" />
<missing-glyph horiz-adv-x="250" d="M32 0H219V375H32V0ZM62 32V344H188V32H62Z" />
<glyph unicode=" " glyph-name="space" horiz-adv-x="104" />
<glyph unicode="!" glyph-name="exclam" horiz-adv-x="157" d="M97 79H60V332H97V79ZM53 21Q53 26 55 30T60 38T68 44T78 46Q83 46 88 44T96 38T101 30T104 21Q104 15 102 11T96 3T88 -3T78 -6Q73 -6 69 -4T61 2T55 10T53 21Z" />
<glyph unicode="&quot;" glyph-name="quotedbl" horiz-adv-x="143" d="M80 286Q82 287 85 289T90 292Q93 294 102 294T114 292Q116 291 119 289T124 286L108 197H96L80 286ZM20 286Q21 287 23 288Q27 291 29 292Q32 294 41 294T53 292Q58 290 62 286L48 197H34L20 286Z" />
<glyph unicode="#" glyph-name="numbersign" horiz-adv-x="244" d="M53 162H90L106 226H127L111 162H158L174 226H195L179 162H216L210 136H173L161 88H198L191 63H155L138 -7H116L134 63H87L70 -7H49L66 63H28L34 88H72L84 136H47L53 162ZM93 88H140L152 136H105L93 88Z" />
<glyph unicode="$" glyph-name="dollar" horiz-adv-x="230" d="M143 228Q152 227 170 223Q192 215 196 213L184 174H166L160 196Q152 201 142 203Q133 206 122 206Q105 206 93 197T81 174Q81 162 90 154Q98 146 110 140T138 127Q152 122 166 112Q180 101 186 92Q195
80 195 62Q195 38 180 20Q163 3 137 -1V-36H108V-2Q69 1 34 20L48 66H68L72 36Q82 28 95 24Q108 18 124 18Q141 18 153 28Q163 37 163 53Q163 66 154 73Q146 81 134 87Q131 88 122 93T106 100Q96 104 78 114Q64 125 58 134Q49 146 49 164Q49 188 66 205Q84 223
114 226V262H143V228Z" />
<glyph unicode="%" glyph-name="percent" horiz-adv-x="337" d="M248 -4Q222 -4 206 11Q190 27 190 60Q190 92 206 108Q221 122 248 122Q261 122 270 119Q282 116 288 108Q295 103 300 88Q304 77 304 60Q304 41 300 30Q295 17 288 11Q282 3 270 0Q258 -4 248 -4ZM248
10Q272 10 272 60Q272 86 266 96Q260 108 248 108Q235 108 229 96Q223 86 223 60Q223 10 248 10ZM256 238L274 222L84 -10L66 5L256 238ZM90 104Q64 104 48 119Q32 135 32 168Q32 200 48 216Q65 230 90 230Q103 230 112 227Q124 224 130 216Q137 211 142 196Q146
185 146 168Q146 134 130 119T90 104ZM90 118Q114 118 114 168Q114 194 108 204Q102 216 90 216Q77 216 71 204Q65 194 65 168Q65 118 90 118Z" />
<glyph unicode="&amp;" glyph-name="ampersand" horiz-adv-x="271" d="M264 2Q258 1 250 -1Q241 -4 230 -4Q199 -4 175 26Q157 10 143 4Q124 -4 104 -4Q89 -4 77 2Q64 7 56 15Q48 21 43 34Q38 46 38 58Q38 80 52 100Q66 121 95 136Q78 159 72 172Q66 187 66 202Q66
214 70 225Q77 239 84 246Q92 254 106 261Q117 266 136 266Q150 266 161 262Q174 257 181 250Q188 244 193 233Q198 223 198 213Q198 192 181 172Q166 154 134 138L186 64Q193 79 194 96Q196 109 196 134L224 150L228 146Q226 128 224 120Q221 104 217 95Q211 79
207 72Q204 64 196 52Q210 36 226 29Q244 21 268 18L264 2ZM103 126Q73 105 73 69Q73 48 85 36T116 24Q132 24 143 28Q155 32 164 40L103 126ZM126 148Q146 163 154 176Q164 189 164 206Q164 224 154 234Q145 244 130 244Q113 244 106 234Q97 225 97 212Q97 203
98 199Q98 198 103 186Q106 177 112 169Q113 167 115 163T120 156T126 148Z" />
<glyph unicode="&apos;" glyph-name="quotesingle" horiz-adv-x="82" d="M20 286Q21 287 23 288Q27 291 29 292Q32 294 41 294T53 292Q58 290 62 286L48 197H34L20 286Z" />
<glyph unicode="(" glyph-name="parenleft" horiz-adv-x="196" d="M170 365Q149 343 135 318T112 265T98 208T93 150Q93 89 112 38T172 -61L161 -71Q136 -48 114 -24T77 29T52 88T43 153T52 217T77 275T114 328T161 376L170 365Z" />
<glyph unicode=")" glyph-name="parenright" horiz-adv-x="182" d="M43 378Q68 357 89 332T127 280T152 221T161 155T152 90T127 32T90 -21T43 -68L31 -57Q71 -12 91 40T111 153Q111 182 106 211T92 268T68 321T34 368L43 378Z" />
<glyph unicode="*" glyph-name="at" horiz-adv-x="196" d="M80 300Q90 307 99 307Q107 307 112 302Q116 297 116 288T112 264Q110 255 102 230L163 266Q169 262 173 256Q177 251 177 244Q177 231 164 228Q154 223 122 223H112Q107 223 104 224L156 176Q154 168
148 162T135 156Q124 156 115 172Q108 184 98 220L70 154Q59 154 50 160Q42 165 42 174Q42 191 92 224L22 230Q20 234 20 242Q20 253 24 258Q30 264 37 264T59 255Q78 244 94 230L80 300Z" />
<glyph unicode="+" glyph-name="plus" horiz-adv-x="257" d="M122 117V209H148V117H240V92H148V0H122V92H31V117H122Z" />
<glyph unicode="," glyph-name="comma" horiz-adv-x="127" d="M50 54Q69 48 79 35Q90 22 90 8Q90 -8 80 -30Q66 -50 42 -68L32 -58Q45 -43 52 -30Q56 -19 58 -10L26 14L50 54Z" />
<glyph unicode="-" glyph-name="hyphen" horiz-adv-x="157" d="M142 110Q142 98 132 93T108 88H18V98Q18 110 27 115Q34 120 50 120H142V110Z" />
<glyph unicode="." glyph-name="period" horiz-adv-x="128" d="M28 38Q28 45 31 52T39 63T50 71T66 75T81 72T93 64T100 52T103 38Q103 29 101 23T93 11T82 3T66 0T51 3T39 11T31 22T28 38Z" />
<glyph unicode="/" glyph-name="slash" horiz-adv-x="361" d="M26 -62L304 368L326 354L46 -75L26 -62Z" />
<glyph unicode="0" glyph-name="zero" horiz-adv-x="289" d="M149 -6Q130 -6 114 2T85 22T64 51T51 87T44 124T42 161Q42 177 43 196T50 234T64 270T84 299T113 320T152 328Q172 328 188 320T216 299T236 269T249 234T256 197T258 161Q258 144 256 126T249 88T236
52T215 23T187 2T149 -6ZM149 315Q137 315 127 306T111 283T101 252T95 218T91 186T90 163Q90 153 91 138T94 105T100 71T110 39T127 16T149 7Q163 7 172 15T189 38T200 70T206 105T208 137T209 163Q209 172 209 187T206 219T200 253T189 284T173 306T149 315Z"
/>
<glyph unicode="1" glyph-name="one" horiz-adv-x="246" d="M161 321Q159 288 159 259T157 201T156 144L158 88Q158 66 159 52T166 29T185 15T224 7V0H49V7Q75 10 88 15T106 29T114 52T116 88V241Q116 259 114 272T107 294T88 307T51 314V321H161Z" />
<glyph unicode="2" glyph-name="two" horiz-adv-x="275" d="M229 0H35L33 7Q48 18 65 33T101 65T136 102T165 142T185 183T193 224Q193 237 189 249T178 269T159 282T133 288Q122 288 112 285T92 275T74 261L57 246L51 252Q57 266 67 279T91 303T119 321T153 328T188
321T215 300T232 270T238 233Q238 216 231 197T213 161T187 128T155 95T122 66L92 39H178Q197 39 208 41T227 49T242 66Q242 66 257 92L263 88L229 0Z" />
<glyph unicode="3" glyph-name="three" horiz-adv-x="254" d="M64 148Q64 148 81 161Q87 167 92 170T101 176T112 180L121 182Q131 186 140 192T158 206T171 225T176 247T172 266T160 280T144 289T123 292Q114 292 104 289T84 281T66 270T51 254L42 260Q51 275
61 287T84 308T111 322T144 328Q158 328 171 323T195 310T211 290T218 263Q218 247 210 234T190 210T164 193T137 178Q156 177 172 171T202 155T222 129T229 94Q229 72 219 54T192 22T155 2T114 -6Q103 -6 88 -3T61 6T40 22T32 48Q32 57 35 64T46 74T61 78T79 72V62Q79
53 83 43T93 25T108 13T128 9Q143 9 154 15T173 30T185 52T189 78Q189 95 182 108T161 129T133 141T103 145Q93 145 85 144T68 142L64 148Z" />
<glyph unicode="4" glyph-name="four" horiz-adv-x="292" d="M210 324Q208 295 208 271T207 226V181V131H273V99H207V81Q207 64 207 51T213 30T231 17T266 7V0H109V7Q132 11 144 16T161 30T167 51V81V99H33L31 112L198 330L210 324ZM66 131H167V266L66 131Z" />
<glyph unicode="5" glyph-name="five" horiz-adv-x="261" d="M76 189Q76 189 89 193Q95 194 101 195T115 197T131 198Q154 198 173 192T207 172T231 141T240 98Q240 75 230 55T204 22T168 2T125 -6Q114 -6 101 -4T76 5T56 21T48 44Q48 53 52 60T62 71T77 76T95
72Q93 61 95 50T102 29T117 15T143 9Q156 9 166 15T184 30T195 52T198 78Q198 97 193 111T178 137T153 153T121 159Q104 159 89 154T61 142L57 143L72 321H163Q178 321 187 322T201 325T210 332T218 346H224L209 282H84L76 189Z" />
<glyph unicode="6" glyph-name="six" horiz-adv-x="275" d="M238 321Q218 310 198 297T160 268T129 233T104 192Q119 197 134 201T164 205Q186 205 204 197T235 177T255 146T263 106Q263 82 255 61T230 26T193 3T148 -6Q122 -6 102 3T68 28T46 65T38 111Q38 138
46 163T67 209T100 249T141 282T186 309T233 329L238 321ZM88 108Q88 92 91 75T103 43T124 19T156 9Q174 9 185 17T202 38T210 66T213 94Q213 112 208 129T193 159T168 179T133 187Q123 187 116 186T100 182Q93 163 91 145T88 108Z" />
<glyph unicode="7" glyph-name="seven" horiz-adv-x="293" d="M61 -6L236 282H126Q126 282 104 282Q95 282 89 280T79 274T71 266L62 253Q57 246 51 236L44 237L67 321H274L277 319L93 -6H61Z" />
<glyph unicode="8" glyph-name="eight" horiz-adv-x="254" d="M108 167Q108 167 87 183Q87 183 66 202Q57 211 53 223T48 251Q48 270 56 284T79 308T110 323T143 328T175 324T204 311T225 290T232 258Q232 242 227 230T213 209T192 191T167 177L172 172L196 154Q208
144 217 133T233 109T240 77Q240 57 231 42T207 16T174 0T137 -6T101 -1T68 13T44 38T35 75Q35 92 42 105T60 130T84 149T112 164L108 167ZM77 83Q77 68 82 55T95 31T117 14T144 7Q156 7 166 11T182 23T193 41T198 62Q198 81 190 94T171 119T145 139L120 159Q111
153 103 145T89 126T80 105T77 83ZM191 251Q191 263 187 275T177 295T160 309T134 315Q126 315 118 312T103 302T93 288T89 269Q89 253 96 241T114 218T137 198L161 182Q176 194 183 212T191 251Z" />
<glyph unicode="9" glyph-name="nine" horiz-adv-x="282" d="M59 -2Q83 7 104 22T144 56T178 97T200 143Q185 133 169 128T132 122T95 129T65 150T45 180T37 218Q37 242 46 262T71 297T108 320T153 328Q177 328 197 319T232 296T254 261T262 216Q262 172 246 135T202
70T139 21T62 -12L59 -2ZM86 232Q86 207 93 190T111 162T135 147T159 142Q172 142 185 145T207 158Q210 171 210 184T211 213Q211 222 210 234T207 257T199 278T188 297T171 310T149 315Q132 315 120 307T101 288T90 262T86 232Z" />
<glyph unicode=":" glyph-name="colon" horiz-adv-x="128" d="M28 186Q28 193 31 200T39 213T50 220T66 222T81 220T93 213T100 201T103 186Q103 178 101 171T93 159T82 151T66 148T51 151T39 159T31 171T28 186ZM28 38Q28 45 31 52T39 63T50 71T66 75T81 72T93
64T100 52T103 38Q103 29 101 23T93 11T82 3T66 0T51 3T39 11T31 22T28 38Z" />
<glyph unicode=";" glyph-name="semicolon" horiz-adv-x="138" d="M60 54Q79 48 89 35Q100 22 100 8Q100 -8 90 -30Q76 -50 52 -68L42 -58Q55 -43 62 -30Q66 -19 68 -10L36 14L60 54ZM28 176Q28 183 31 190T39 201T50 209T66 213T81 210T93 202T100 190T103 176Q103
167 101 161T93 149T82 141T66 138T51 141T39 149T31 160T28 176Z" />
<glyph unicode="&lt;" glyph-name="less" horiz-adv-x="230" d="M200 -5L30 93V125L200 223V190L57 109L200 28V-5Z" />
<glyph unicode="=" glyph-name="equal" horiz-adv-x="230" d="M31 66V94H200V66H31ZM31 124V151H200V124H31Z" />
<glyph unicode="&gt;" glyph-name="greater" horiz-adv-x="230" d="M30 28L173 109L30 190V223L200 125V93L30 -5V28Z" />
<glyph unicode="?" glyph-name="question" horiz-adv-x="186" d="M86 74Q76 83 68 92Q62 102 62 112Q62 120 64 124Q65 129 70 137Q73 142 83 152Q88 158 102 172Q113 181 119 189Q121 191 130 203Q135 211 136 216Q138 226 138 230Q138 237 136 245Q133 253 130
256Q124 260 121 261T108 262Q100 262 96 261Q91 260 81 256Q65 246 63 245Q61 243 53 237T40 228L15 256Q36 273 57 281Q75 288 98 288Q113 288 128 283T151 270Q161 263 166 251Q172 240 172 227Q172 217 171 212Q170 204 165 195Q161 188 153 176Q150 172 132
154Q116 140 112 136Q103 127 100 123Q95 117 94 113Q92 107 92 104Q92 97 95 91Q96 90 103 80L86 74ZM71 22Q71 48 96 48Q122 48 122 22T96 -4Q84 -4 77 3Q71 9 71 22Z" />
<glyph unicode="@" glyph-name="at" horiz-adv-x="341" d="M233 173Q229 155 227 145Q223 124 222 117Q220 99 219 91T218 70Q218 53 223 45Q229 38 239 38Q250 38 258 42Q267 47 275 58Q282 68 287 86Q292 106 292 128Q292 149 284 168Q278 184 265 198Q253 210
234 218Q217 225 193 225Q165 225 141 213Q115 200 98 180Q78 157 70 132Q59 106 59 72Q59 51 66 30Q77 10 87 2Q99 -9 118 -15Q138 -20 158 -20T193 -17Q211 -13 218 -10L225 -20Q211 -30 192 -36Q174 -42 148 -42Q91 -42 58 -12Q26 16 26 71Q26 102 38 133Q49
162 72 190Q95 214 127 231Q158 247 198 247Q223 247 245 239Q267 232 283 217Q301 201 309 180Q318 159 318 130T311 80Q303 58 292 44Q279 28 266 22Q253 14 236 14Q215 14 204 28Q192 42 194 71Q178 44 165 34Q152 22 138 22Q125 22 116 34Q106 45 106 71Q106
88 112 107Q122 133 130 144Q137 157 154 172Q168 183 182 183Q194 183 207 180Q222 177 233 173ZM200 151Q198 152 193 153T186 156Q183 156 179 156T174 157H168L166 156Q165 156 164 156Q157 152 154 146Q148 136 145 129Q141 115 139 107Q137 91 137 82Q137
64 141 59Q144 52 152 52T172 66Q185 80 192 105Q197 118 198 128Q200 142 200 151Z" />
<glyph unicode="[" glyph-name="bracketleft" horiz-adv-x="110" d="M103 293Q89 291 80 288Q70 286 61 280Q60 273 56 221Q56 210 56 174T55 112T55 51T56 4Q60 -48 61 -56Q62 -57 68 -59T80 -64Q102 -69 103 -69V-87Q75 -83 62 -79Q46 -75 30 -66Q25 -43 22
-4Q20 24 20 112V178Q22 216 22 227Q23 234 26 264Q28 282 30 291Q40 297 62 304Q75 308 103 312V293Z" />
<glyph unicode="\" glyph-name="backslash" horiz-adv-x="145" d="M146 -34L120 -44L0 294L26 304L146 -34Z" />
<glyph unicode="]" glyph-name="bracketright" horiz-adv-x="110" d="M8 312Q36 308 48 304Q69 297 81 291Q82 279 84 264Q87 234 88 227Q88 216 90 178Q91 159 91 112Q91 38 88 -4Q86 -34 81 -66Q62 -76 48 -79Q36 -83 8 -87V-69Q14 -68 30 -64L50 -56Q52 -39
54 4Q56 58 56 112Q56 167 54 221Q52 266 50 280Q41 285 30 288Q24 290 8 293V312Z" />
<glyph unicode="^" glyph-name="asciicircum" horiz-adv-x="268" d="M29 94L123 264H146L240 94H208L134 238L62 94H29Z" />
<glyph unicode="_" glyph-name="underscore" horiz-adv-x="250" d="M0 -18H250V-42H0V-18Z" />
<glyph unicode="`" glyph-name="grave" horiz-adv-x="175" d="M112 222L79 248Q58 264 54 270Q48 279 48 287T54 301Q60 308 68 310L122 232L112 222Z" />
<glyph unicode="{" glyph-name="braceleft" horiz-adv-x="111" d="M20 120Q40 125 47 130Q55 138 55 146Q55 158 51 167Q48 178 39 194Q32 205 26 220Q22 229 22 243Q22 252 28 264Q34 275 45 284Q55 294 71 302Q88 311 104 312L96 282Q84 278 69 268Q55 255 48
246Q54 230 55 226Q60 216 66 202Q69 196 77 174Q82 161 82 151Q82 121 42 112Q62 106 72 96T82 72Q82 62 77 49Q70 29 66 22Q64 18 55 -3Q52 -10 48 -22Q57 -36 69 -44Q81 -55 96 -58L104 -90Q88 -87 71 -79Q56 -72 45 -62Q33 -50 28 -40Q22 -30 22 -20Q22 -6
26 3Q32 18 39 30Q48 45 51 56Q55 65 55 76Q55 86 47 92Q41 98 20 103V120Z" />
<glyph unicode="|" glyph-name="bar" horiz-adv-x="200" d="M86 284H114V-24H86V284Z" />
<glyph unicode="}" glyph-name="braceright" horiz-adv-x="111" d="M92 103Q70 98 64 92Q56 86 56 76Q56 65 60 56Q66 42 72 30Q79 18 85 3Q89 -6 89 -20Q89 -30 83 -40Q78 -50 66 -62Q55 -72 40 -79Q23 -88 8 -90L16 -58Q30 -54 42 -44Q56 -35 62 -22Q62 -14
56 -3Q54 4 45 22Q42 29 34 49Q30 60 30 72Q30 87 40 96Q48 105 68 112Q30 121 30 151Q30 163 34 174Q42 196 45 202Q52 216 56 226Q62 240 62 246Q57 255 42 268Q27 278 16 282L8 312Q22 311 40 302Q56 294 66 284Q77 275 83 264Q89 252 89 243Q89 229 85 220Q78
205 72 194L60 167Q56 158 56 146Q56 138 64 130Q71 125 92 120V103Z" />
<glyph unicode="~" glyph-name="asciitilde" horiz-adv-x="244" d="M36 92Q54 123 65 136Q77 148 88 148Q94 148 102 144Q116 137 124 132Q144 120 146 119Q155 116 158 116Q164 116 167 117Q169 118 171 119T176 122L186 132Q187 133 189 136T193 142T198 148L208
138Q192 109 178 94Q168 82 156 82Q151 82 143 86Q139 88 122 97Q112 102 106 106L96 111L90 114H86Q80 114 78 113Q72 111 70 109Q66 107 60 99Q54 92 46 82L36 92Z" />
</font>
</defs>
</svg>
